<?xml version="1.0" encoding="utf-8"?>
<!-- Generator: Adobe Illustrator 25.4.1, SVG Export Plug-In . SVG Version: 6.00 Build 0)  -->
<svg version="1.1" id="レイヤー_1" xmlns="http://www.w3.org/2000/svg" xmlns:xlink="http://www.w3.org/1999/xlink" x="0px"
	 y="0px" viewBox="0 0 754.8 276.5" style="enable-background:new 0 0 754.8 276.5;" xml:space="preserve">
<style type="text/css">
	.st0{fill-rule:evenodd;clip-rule:evenodd;fill:#FFFFFF;}
</style>
<path class="st0" d="M204.3,31.7c-2.1-0.3-4.2-0.5-6.3-0.8c0,0.3,0,0.5,0,0.8c-1.8,0-3.7,0-5.5,0c-1.4,0.4-4.6,1.2-6.3,1.6
	c-1.4,2.3-2.3,2.2-2.4,6.3c0.3,0,0.5,0,0.8,0c2.1,3.9-2.6,5.8-1.6,9.4c0.3,0,0.5,0,0.8,0c0,0.8,0,1.6,0,2.4c0.3,0,0.5,0,0.8,0
	c0,0.3,0,0.5,0,0.8c0.8,0,1.6,0,2.4,0c0-0.3,0-0.5,0-0.8c1.3,0,2.6,0,3.9,0c0.1,0-0.1-0.5,1.6-0.8c0-0.8,0-1.6,0-2.4
	c-0.3,0-0.5,0-0.8,0c-3.1-2.5-5.6,1.3-6.3-4.7c4.2-0.3,8.4-0.5,12.6-0.8c0,0.3,0,0.5,0,0.8c0.8,0,1.6,0,2.4,0c0,0.3,0,0.5,0,0.8
	c1.3,0,2.6,0,3.9,0c0,0.3,0,0.5,0,0.8c1.1,0,2.1,0,3.1,0c1.6,0.5,4,1.7,5.5,2.4c-0.5,1.6,0.1,0.7-0.8,1.6c0,0.3,0,0.5,0,0.8
	c-0.5,0-1.1,0-1.6,0c0,0.3,0,0.5,0,0.8c-3.7,0-7.3,0-11,0c0,0-0.1,0.5-1.6,0.8c-0.5,1.6,0.1,0.7-0.8,1.6c0.5,2.2,1.5,2.9,2.4,4.7
	c4.4-0.1,6.2,0.9,9.4,1.6c0.5,1.4,0.7,2.5,0.8,4.7c-0.3,0-0.5,0-0.8,0c0,0.8,0,1.6,0,2.4c-1.1,1.7-3.4,1.6-6.3,1.6c0-0.5,0-1,0-1.6
	c-1.6-0.5-0.7,0.1-1.6-0.8c-1.9,0.5-1.5,0.2-2.4,1.6c-0.9,0.6-0.1-0.1-0.8,0.8c1.1,0,2.1,0,3.1,0c0.5,0.3,1.4,12.1,1.6,13.3
	c1.2-0.1,11.6,1.8,11-0.8c0.5,0,1.1,0,1.6,0c0.3-0.5,0.5-1,0.8-1.6c0.5,0,1.1,0,1.6,0c0.3-0.5,0.5-1,0.8-1.6c0.5,0,1.1,0,1.6,0
	c0-0.3,0-0.5,0-0.8c0.5,0,1.1,0,1.6,0c0-0.3,0-0.5,0-0.8c2.4-1.2,5.4-0.8,7.1,0.8c0.3,0,0.5,0,0.8,0c0,0.8,0,1.6,0,2.4
	c-3.3,0.4-4.1,1.9-6.3,3.1c-0.5,0-1.1,0-1.6,0c-0.3,0.5-0.5,1-0.8,1.6c-1.6,0.5-3.1,1-4.7,1.6c0,0.3,0,0.5,0,0.8c-0.5,0-1.1,0-1.6,0
	c0,0.3,0,0.5,0,0.8c-1.6,0-3.1,0-4.7,0c0,0.3,0,0.5,0,0.8c-2.9-0.3-5.8-0.5-8.6-0.8c0-0.3,0-0.5,0-0.8c-6.1-1.7-11.6,1.3-16.5,1.6
	c0-0.8,0-1.6,0-2.4c0.3,0,0.5,0,0.8,0c1.9-2.3,6.7-3.9,11-3.9c0-2.4,0-4.7,0-7.1c-2.3-0.5-2.6-0.9-3.1-3.1c0.9-0.9,0.3,0,0.8-1.6
	c-1.6-0.3-3.1-0.5-4.7-0.8c0-0.3,0-0.5,0-0.8c-0.8-0.6-0.8-1-1.6-1.6c0.3-0.8,0.5-1.6,0.8-2.4c3.4-0.4,2.8-1.5,4.7-3.1
	c0-0.5,0-1,0-1.6c-0.8-0.3-1.6-0.5-2.4-0.8c-1.1-1.1-4.4-2-6.3-2.4c-1.4,2.3-2.3,2.2-2.4,6.3c-0.3,0-0.5,0-0.8,0c0,1.6,0,3.1,0,4.7
	c-0.3,0-0.5,0-0.8,0c-0.3,4.2-0.5,8.4-0.8,12.5c0.3,0,0.5,0,0.8,0c-0.3,2.9-0.5,5.8-0.8,8.6c-0.9,0.5-1.1,1.3-1.6,1.6
	c-0.5,0-1.1,0-1.6,0c0,0.3,0,0.5,0,0.8c-0.5,0-1.1,0-1.6,0c-1.6,1.8-3.1,3.7-4.7,5.5c-0.5,0-1.1,0-1.6,0c0,0.3,0,0.5,0,0.8
	c-0.5,0-1.1,0-1.6,0c0,0.3,0,0.5,0,0.8c-2.8-0.1-2.3-0.2-3.1,2.4c-1.2,1.3-3.1,1.4-5.5,1.6c-0.5-1.5-0.8-3.1-0.8-5.5
	c0.3,0,0.5,0,0.8,0c0-0.5,0-1,0-1.6c1.1,0.3,1.1-0.9,1.6-1.6c0.8,0.3,1.6,0.5,2.4,0.8c2.1-0.8,4.2-1.6,6.3-2.4
	c1.8-3.3,4.9-6.5,6.3-10.2c0-1.3,0-2.6,0-3.9c0.3,0,0.5,0,0.8,0c0.3-2.9,0.5-5.8,0.8-8.6c0.3,0,0.5,0,0.8,0c0-3.7,0-7.3,0-11
	c0.3,0,0.5,0,0.8,0c0.3-6.3,0.5-12.5,0.8-18.8c-0.3,0-0.5,0-0.8,0c-1.1-3.2-1.6-5.1-1.6-9.4c2.1-1.3,2-3.1,4.7-3.9
	c2.6-2.6,7.9-0.8,12.6-1.6c6.9-1.1,17.4-0.7,24.3,0c1.1,1.3,2.1,2.6,3.1,3.9c0.3,0,0.5,0,0.8,0c0,0.8,0,1.6,0,2.4c0.3,0,0.5,0,0.8,0
	c0.7,1,0.6,1.5,1.6,2.4c-0.5,1.6,0.1,0.7-0.8,1.6c-1.6,6.1-10.1,5.7-18,5.5c-0.6-0.9,0.1-0.1-0.8-0.8
	C204.8,36.4,204.5,34,204.3,31.7z"/>
<path class="st0" d="M100.7,37.2c1.1-0.3,2.1-0.5,3.1-0.8c0-0.3,0-0.5,0-0.8c1.8,0.3,3.7,0.5,5.5,0.8c0,0.3,0,0.5,0,0.8
	c5.4,2.6,8.8,4.4,8.6,12.5c-0.9,0.9-0.3,0-0.8,1.6c-2,1-2.8,1.6-6.3,1.6c0-0.3,0-0.5,0-0.8c-1.3-0.3-2.6-0.5-3.9-0.8
	c0-0.3,0-0.5,0-0.8c-0.5,0-1.1,0-1.6,0c0-0.3,0-0.5,0-0.8c-0.5,0-1.1,0-1.6,0c-1.3-2.4-2.6-4.7-3.9-7.1c-0.3,0-0.5,0-0.8,0
	c0-1,0-2.1,0-3.1C100.5,38.6,100.2,39,100.7,37.2z"/>
<path class="st0" d="M144.6,53.6c0,1,0,2.1,0,3.1c-1.8,1.6-3.7,3.1-5.5,4.7c-0.3,0.5-0.5,1-0.8,1.6c-1.1,0.3-2.1,0.5-3.1,0.8
	c-0.5,0.8-1.1,1.6-1.6,2.4c-0.5,0-1.1,0-1.6,0c-0.3,0.5-0.5,1-0.8,1.6c-1.1,0.3-2.1,0.5-3.1,0.8c-1,1.3-2.1,2.6-3.1,3.9
	c-0.5,0-1.1,0-1.6,0c0,0.3,0,0.5,0,0.8c-0.5,0-1.1,0-1.6,0c0,0.3,0,0.5,0,0.8c-1.6,0-3.1,0-4.7,0c-0.3,0.5-0.5,1-0.8,1.6
	c-1,0.5-2.7,0.3-2.3,1.6c-0.5,0-1.1,0-1.6,0c-0.3,0.5-0.5,1-0.8,1.6c-1.3,0.3-2.6,0.5-3.9,0.8c0,0.3,0,0.5,0,0.8c-0.5,0-1.1,0-1.6,0
	c0,0.3,0,0.5,0,0.8c-0.8,0-1.6,0-2.3,0c0,0.3,0,0.5,0,0.8c-0.5,0-1.1,0-1.6,0c-0.3,0.5-0.5,1-0.8,1.6c-1.3,1-3.2,0.7-5.5,0.8
	c0-1,0-2.1,0-3.1c1.6-1.3,3.1-2.6,4.7-3.9c0.3-0.5,0.5-1,0.8-1.6c1.8-0.3,3.7-0.5,5.5-0.8c0-0.3,0-0.5,0-0.8
	c2.1-0.8,4.5-0.5,6.3-1.6c0.3-0.5,0.5-1,0.8-1.6c0.5,0,1.1,0,1.6,0c0-0.3,0-0.5,0-0.8c0.5,0,1.1,0,1.6,0c0-0.3,0-0.5,0-0.8
	c0.8,0,1.6,0,2.3,0c0-0.3,0-0.5,0-0.8c0.8,0,1.6,0,2.3,0c0-0.3,0-0.5,0-0.8c0.5,0,1.1,0,1.6,0c0.8-1,1.6-2.1,2.3-3.1
	c1.6-0.5,3.1-1,4.7-1.6c1.1-1.3,2.1-2.6,3.1-3.9c0.5,0,1.1,0,1.6,0c0.3-0.5,0.5-1,0.8-1.6c0.5,0,1.1,0,1.6,0
	C138.7,54.7,141.1,54,144.6,53.6z"/>
<path class="st0" d="M59.9,43.4c1.3,0,2.6,0,3.9,0c1.3,2.2,2.7,2.1,3.1,5.5c-2,1-2.8,1.6-6.3,1.6c0,0.3,0,0.5,0,0.8
	c-0.3,0-0.5,0-0.8,0c0-0.3,0-0.5,0-0.8c-0.8,0-1.6,0-2.3,0c0-0.3,0-0.5,0-0.8C55.2,47.1,58.8,45.2,59.9,43.4z M58.3,59.1
	c0.3,1,0.5,2.1,0.8,3.1c0.3,0,0.5,0,0.8,0c0,0.8,0,1.6,0,2.4c0.5,0.3,1,0.5,1.6,0.8c0,0.5,0,1,0,1.6c0.5,0.3,1,0.5,1.6,0.8
	c0,0.5,0,1,0,1.6c0.3,0,0.5,0,0.8,0c0,1,0,2.1,0,3.1c0.3,0,0.5,0,0.8,0c-0.8,3.7-1.6,7.3-2.3,11c-2,0.4-3.5,0.8-6.3,0.8
	c-1.3-1.6-2.6-3.1-3.9-4.7c-0.5-0.3-1-0.5-1.6-0.8c-0.5-2.6-1-5.2-1.6-7.8c-0.3,0-0.5,0-0.8,0c0-0.5,0-1,0-1.6
	c-0.5-0.3-1-0.5-1.6-0.8c0-0.5,0-1,0-1.6c-0.5-0.3-1-0.5-1.6-0.8c0-0.5,0-1,0-1.6c-0.3,0-0.5,0-0.8,0c-1-1.8-0.6-4.5-1.6-6.3
	c-0.3,0-0.5,0-0.8,0c-1.1-1.6-1.3-1.9-1.6-4.7c0.9-0.6,0.1,0.1,0.8-0.8c2.6-0.3,7.4-1.1,9.4,0.8c2.5,0.6,3.8,2.4,5.5,3.9
	c0.3,0.5,0.5,1,0.8,1.6C57.3,59.1,57.8,59.1,58.3,59.1z M24.6,64.6c0,1.6,0,3.1,0,4.7c-3,1.9-3.4,5.8-5.5,8.6l-1.6,1.6
	c-0.5,0-1,0-1.6,0c-0.5,0.8-1.1,1.6-1.6,2.4c-1.5,1.1-1.1-0.4-2.3,1.6c-0.8-0.3-1.6-0.5-2.3-0.8c-0.5-1.2-0.6-1.3-0.8-3.1
	c1.2,0.3,1.1-1.4,1.6-2.4c0.5,0,1.1,0,1.6,0c0.8-1,1.6-2.1,2.3-3.1c0.3,0,0.5,0,0.8,0c0.3-1,0.5-2.1,0.8-3.1
	c0.5-0.3,1.1-0.5,1.6-0.8c0-0.5,0-1,0-1.6c0.3,0,0.5,0,0.8,0c1.1-1.3,2.1-2.6,3.1-3.9C22.5,64.6,23.6,64.6,24.6,64.6z"/>
<path class="st0" d="M483.5,120.3c0.3,0.8,0.5,1.6,0.8,2.4c-0.3,0-0.5,0-0.8,0c0,1,0,2.1,0,3.1c-0.3,0-0.5,0-0.8,0
	c0,1.6,0,3.1,0,4.7c-0.5,0.3-1,0.5-1.6,0.8c-1.8,5-3.7,9.9-5.5,14.9c-1,0.3-2.1,0.5-3.1,0.8c0.2,2.6,1,8.3,0,11.8
	c-0.3,0-0.5,0-0.8,0c0.3,5,0.5,9.9,0.8,14.9c0.8,0.3,1.6,0.5,2.4,0.8c3.5,3.2,12.6-3.2,15.7-3.9c0.9-3.2,0.3-0.9,2.4-2.3
	c0.3-0.5,0.5-1,0.8-1.6c0.8,0,1.6,0,2.4,0c0.3-0.5,0.5-1,0.8-1.6c5.6-3.4,13.2-6.1,21.2-4.7c0.9,3.6,1.6,2.7,0.8,7.1
	c-1.5,0.3-1.6,0.8-1.6,0.8c-2.4,0-4.7,0-7.1,0c0,0.3,0,0.5,0,0.8c-0.8,0-1.6,0-2.4,0c0,0.3,0,0.5,0,0.8c-0.5,0-1,0-1.6,0
	c0,0.3,0,0.5,0,0.8c-1.3,0-2.6,0-3.9,0c0,0.3,0,0.5,0,0.8c-1.6,0.3-3.1,0.5-4.7,0.8c-0.3,0.5-0.5,1-0.8,1.6c-0.5,0-1,0-1.6,0
	c-0.3,0.5-0.5,1-0.8,1.6c-0.5,0-1,0-1.6,0c-0.5,0.8-1,1.6-1.6,2.3c-0.5,0-1,0-1.6,0c-0.5,0.8-1,1.6-1.6,2.3c-0.5,0-1,0-1.6,0
	c0,0.3,0,0.5,0,0.8c-4.7-0.3-9.4-0.5-14.1-0.8c0,1.3,0,2.6,0,3.9c-0.3,0-0.5,0-0.8,0c-0.9,3.3,1.2,4,0,6.3c0.3,0,0.5,0,0.8,0
	c0.5,1,1,2.1,1.6,3.1c0.3,0,0.5,0,0.8,0c0-0.5,0-1,0-1.6c3.7,0.3,7.3,0.5,11,0.8c0.5,1.3,0.7,1.8,0.8,3.9c0.5,0,1,0,1.6,0
	c0.7,3.4,1.7,9.4-0.8,11.8c0,0.3,0,0.5,0,0.8c-1.4,1.1-3.8,0.1-5.5,0.8c-0.8,0.3-4.2,3.1-4.7,3.9c-1.2,1.1-4,9.7-2.4,13.3
	c0.5,0.3,1,0.5,1.6,0.8c0,0.5,0,1,0,1.6c0.3,0,0.5,0,0.8,0c1.4,3.1-0.9,4.3,3.1,5.5c3.6,3,9.6-1.2,14.1,0c0,0.3,0,0.5,0,0.8
	c6.8,0,13.6,0,20.4,0c0,0.3,0,0.5,0,0.8c2.4,0,4.7,0,7.1,0c0,0.3,0,0.5,0,0.8c1,0.3,2.1,0.5,3.1,0.8c1.3,1.6,2.6,3.1,3.9,4.7
	c0,4-0.2,8-0.8,11c-2.8,1.3-3.4,2.3-7.8,2.3c-4.6-6.1-18.7-5.5-26.7-5.5c0-0.3,0-0.5,0-0.8c-0.5,0-1,0-1.6,0c-0.3-0.5-0.5-1-0.8-1.6
	c-1.3-0.3-2.6-0.5-3.9-0.8c0-0.3,0-0.5,0-0.8c-3.1,0-6.3,0-9.4,0c0-0.3,0-0.5,0-0.8c-5.1-1.4-17.1,0.6-20.4,1.6c-3.1,0-6.3,0-9.4,0
	c0,0.3,0,0.5,0,0.8c-1.6,0.5-3.1,1-4.7,1.6c0,0.3,0,0.5,0,0.8c-0.5,0-1,0-1.6,0c0,0.3,0,0.5,0,0.8c-1.6,0-3.1,0-4.7,0
	c-2.5,0.7-9.4,2.8-13.3,1.6c0-0.3,0-0.5,0-0.8c-1.3-0.3-2.6-0.5-3.9-0.8c-2.1-3.5-3.1-2.5-3.1-8.6c0.9-0.9,0.3,0,0.8-1.6
	c3.2-0.7,3.5-2.4,5.5-3.1c3.9,0,7.8,0,11.8,0c0-0.3,0-0.5,0-0.8c0.8,0,1.6,0,2.4,0c0-0.3,0-0.5,0-0.8c2.1,0,4.2,0,6.3,0
	c0-0.3,0-0.5,0-0.8c6.8-1.9,11.8,4,15.7-2.3c1.4-1.4,2.2-5,2.4-7.8c-1.4-1.1,0.3-0.2-0.8-1.6c-0.8-0.8-2.6-1.1-2.4-2.3
	c-0.5,0-1,0-1.6,0c-0.3-0.5-0.5-1-0.8-1.6c-0.5,0-1,0-1.6,0c0-0.3,0-0.5,0-0.8c-0.5,0-1,0-1.6,0c0-0.3,0-0.5,0-0.8c-0.5,0-1,0-1.6,0
	c0-0.3,0-0.5,0-0.8c-0.5,0-1,0-1.6,0c-1.8-1.3-3.7-2.6-5.5-3.9c-0.3-1-0.5-2.1-0.8-3.1c-0.3,0-0.5,0-0.8,0c0-0.5,0-1,0-1.6
	c-0.5-0.3-1-0.5-1.6-0.8c0-1.8,0-3.7,0-5.5c1.7-1,1.7-1.8,3.9-2.3c1.6-5.8,8.2-2.6,11-7.1c1.5-1.4,1.9-4.6,2.4-7.1
	c0.3,0,0.5,0,0.8,0c0-0.3,0-0.5,0-0.8c-0.3,0-0.5,0-0.8,0c0-0.8,0-1.6,0-2.3c-0.3,0-0.5,0-0.8,0c-0.5-1.7,0.4-3.1,0.8-3.9
	c-0.3,0-0.5,0-0.8,0c-2-2.2-6.1-1.6-10.2-1.6c-8,0-15-1.3-22,0c-0.5,2.1-1.2,2.5-2.4,3.9c-0.3,0-0.5,0-0.8,0c-0.3,1-0.5,2.1-0.8,3.1
	c-0.3,0-0.5,0-0.8,0c-0.3,2.1-0.5,4.2-0.8,6.3c-0.3,0-0.5,0-0.8,0c-2.6,5-9.3,11.5-16.5,11.8c-4.1-4.4-15.4-1.4-18.8-7.1
	c-1.4-1.4-1.6-3.4-1.6-6.3c0.3,0,0.5,0,0.8,0c0.3-1.6,0.5-3.1,0.8-4.7c0.8-0.5,1.6-1,2.4-1.6c0.5-1,0.3-2.7,1.6-2.3
	c0-1.3,0-2.6,0-3.9c0.5-2.3,2.3-4.1,4.7-4.7c0.3-1.7,0.8-2.7,1.6-3.9c0.3,0,0.5,0,0.8,0c0-0.8,0-1.6,0-2.3c0.3,0,0.5,0,0.8,0
	c0.3-1,0.5-2.1,0.8-3.1c0.3,0,0.5,0,0.8,0c0-1,0-2.1,0-3.1c0.3,0,0.5,0,0.8,0c0-0.5,0-1,0-1.6c0.3,0,0.5,0,0.8,0c0-0.8,0-1.6,0-2.3
	c0.3,0,0.5,0,0.8,0c1.4-2.9,1.3-4.6,4.7-5.5c1.1-5.6,5.8-6.5,7.1-11.8c3.5-0.7,5-2.5,7.9-3.9c0-0.3,0-0.5,0-0.8c2.6,0,5.2,0,7.8,0
	c1.4,1.6,1.8,0.6,3.1,1.6c0.3,0.5,0.5,1,0.8,1.6c1.6,1.5,2.9,2.6,5.5,3.1c0.3,1.6,1.4,4.6,2.4,5.5c0.9,0.9,0,0.3,1.6,0.8
	c0.6,2.9,1.5,3.9,1.6,7.9c-3,1.8-2.8,3.6-4.7,6.3c-1.3,1-2.6,2.1-3.9,3.1c-0.8,2.3-1.6,4.7-2.4,7.1c0.5,0.3,1,0.5,1.6,0.8
	c3.3,3.3,18,2.4,25.1,2.3c0.3-3.1,0.5-6.3,0.8-9.4c0.3,0,0.5,0,0.8,0c0-1,0-2.1,0-3.1c-0.3,0-0.5,0-0.8,0c0.3-5,0.5-9.9,0.8-14.9
	c0.3,0,0.5,0,0.8,0c0-0.5,0-1,0-1.6c0.3,0,0.5,0,0.8,0c1-7.3,2.1-14.6,3.1-22c1.8-1.6,3.7-3.1,5.5-4.7c3.1,0,6.3,0,9.4,0
	c0,0.3,0,0.5,0,0.8c0.8,0,1.6,0,2.4,0C480.9,120,482.6,119.8,483.5,120.3z"/>
<path class="st0" d="M280.4,183.9c-1,3.2-0.4,1-2.4,2.3c-0.3,0.5-0.5,1-0.8,1.6c-0.8,0-1.6,0-2.4,0c0,0.3,0,0.5,0,0.8
	c-0.8,0-1.6,0-2.4,0c0,0.3,0,0.5,0,0.8c-0.5,0-1,0-1.6,0c0,0.3,0,0.5,0,0.8c-1.1,0-2.1,0-3.1,0c-1.3,1.8-2.6,3.7-3.9,5.5
	c-0.3,1.6-0.5,3.1-0.8,4.7c-0.2,0.4-3.5,2.3-3.1,3.1c0.3,0,0.5,0,0.8,0c1.3,2.1,2.8,2.4,6.3,2.3c0-0.3,0-0.5,0-0.8
	c1.7-1,4,0.1,5.5-0.8c0.3-0.5,0.5-1,0.8-1.6c1-0.3,2.1-0.5,3.1-0.8c2.8-1.5,2.4-2.8,7.1-3.1c1.8,2.6,3.7,1.7,3.9,6.3
	c-3,0.6-5.2,2.2-7.1,3.9c-0.3,0.5-0.5,1-0.8,1.6c-0.5,0-1,0-1.6,0c-0.3,0.5-0.5,1-0.8,1.6c-0.8,0.3-1.6,0.5-2.4,0.8c0,0.5,0,1,0,1.6
	c-1,0.8-2.1,1.6-3.1,2.3c-0.3,1-0.5,2.1-0.8,3.1c-2.1,1.6-4.2,3.1-6.3,4.7c-1.5,1.7,0,2.3-2.4,3.9c0.4,0.8,1.5,1.4,1.6,1.6
	c0.3,1.3,0.5,2.6,0.8,3.9c1.8,1.6,3.7,3.1,5.5,4.7c0,0.5,0,1,0,1.6c1.8,1.6,3.7,3.1,5.5,4.7c0.5,0.8,1,1.6,1.6,2.3c0.5,0,1,0,1.6,0
	c0.3,0.5,0.5,1,0.8,1.6c0.5,0,1,0,1.6,0c0.5,0.8,1,1.6,1.6,2.3c1.5,1,9.2,3.6,12.5,2.3c0-0.3,0-0.5,0-0.8c0.5,0,1,0,1.6,0
	c0.5-0.8,1-1.6,1.6-2.3c0.5,0,1,0,1.6,0c0.5-0.8,1-1.6,1.6-2.3c3.7-2.3,11.2-1.6,15.7-0.8c0.3,1,0.5,2.1,0.8,3.1c-0.3,0-0.5,0-0.8,0
	c-2.7,3.8-9,1.3-13.3,3.1c0,0.3,0,0.5,0,0.8c-1.6,0.5-3.1,1-4.7,1.6c0,0.3,0,0.5,0,0.8c-1,0.3-2.1,0.5-3.1,0.8
	c-0.5,0.8-1,1.6-1.6,2.3c-0.5,0-1,0-1.6,0c0,0.3,0,0.5,0,0.8c-4.5,1.7-10-3.1-11.8-4.7c-0.3-0.5-0.5-1-0.8-1.6c-0.5,0-1,0-1.6,0
	c-0.3-0.5-0.5-1-0.8-1.6c-0.5,0-1,0-1.6,0l-1.6-1.6c-0.5,0-1,0-1.6,0c-0.3-0.8-0.5-1.6-0.8-2.3c-1.3-1-2.6-2.1-3.9-3.1
	c0-0.5,0-1,0-1.6c-0.8-0.5-1.6-1-2.4-1.6c-0.3-0.5-0.5-1-0.8-1.6c-0.5,0-1,0-1.6,0c-0.3-0.5-0.5-1-0.8-1.6c-2.4-2.2-4.5-4.2-8.6-4.7
	c-1.6,1.3-3.1,2.6-4.7,3.9c0,0.5,0,1,0,1.6c-1.2-0.3-1.6,1.6-2.4,2.3c-0.5,0-1.1,0-1.6,0c-0.3,0.5-0.5,1-0.8,1.6c-0.3,0-0.5,0-0.8,0
	c-2.1,2.3-4.2,4.7-6.3,7.1c-0.5,0-1.1,0-1.6,0c-0.3,0.5-0.5,1-0.8,1.6c-0.5,0-1.1,0-1.6,0c-0.7,0.8-1.1,2.6-2.4,2.3c0,0.5,0,1,0,1.6
	c-0.8,0.3-1.6,0.5-2.4,0.8c-0.3,0.5-0.5,1-0.8,1.6c-0.5,0-1.1,0-1.6,0c-0.6,2.9-1.9,3.8-5.5,3.9c-0.9-1.6-1.3-1.4-1.6-3.9
	c1.9-1.1,2.6-2.9,3.9-3.9c0.5,0,1.1,0,1.6,0c0.5-0.8,1.1-1.6,1.6-2.3c1.1-0.3,2.1-0.5,3.1-0.8c0.8-0.8,1.1-2.6,2.4-2.3
	c0.3-0.8,0.5-1.6,0.8-2.3c0.5,0,1.1,0,1.6,0c0.3-0.5,0.5-1,0.8-1.6c0.5,0,1.1,0,1.6,0c0-0.3,0-0.5,0-0.8c1.8-1.5,2.9-3.2,5.5-3.9
	c1.5-6,7.1-5.4,7.8-11c0.3,0,0.5,0,0.8,0c-0.5-1-0.3-2.7-1.6-2.3c0-0.8,0-1.6,0-2.3c1.1-0.4,2.6-1.3,4.7-0.8c0,0.3,0,0.5,0,0.8
	c1.1,0,2.1,0,3.1,0c0-0.3,0-0.5,0-0.8c1.4-0.5,2-0.3,3.1-0.8c0.9-1.8,1.8-2.5,2.4-4.7c0.5,0,1.1,0,1.6,0c1.5-2.5,2.9-2.2,3.1-6.3
	c-0.5-0.3-1.1-0.5-1.6-0.8c-2.6-2.7-12.4-0.1-16.5,0.8c-0.6,0.9,0.1,0.1-0.8,0.8c0,3.1,0,6.3,0,9.4c-1.7,0.3-3.1,1.4-5.5,0.8
	c0-0.3,0-0.5,0-0.8c-1.3,0-2.6,0-3.9,0c0,0.3,0,0.5,0,0.8c-0.5,0-1.1,0-1.6,0c0,0.3,0,0.5,0,0.8c-1.6,0-3.1,0-4.7,0
	c-1.2-2.2-1.9-1.4-2.4-4.7c0.3,0,0.5,0,0.8,0c0.3-1.3,0.5-2.6,0.8-3.9c0.3,0,0.5,0,0.8,0c0-0.5,0-1,0-1.6c0.8-0.8,2.6-1.1,2.4-2.3
	c0.5,0,1.1,0,1.6,0c0.5-0.8,1.1-1.6,1.6-2.3c1.8-1.6,3.7-3.1,5.5-4.7c0-0.5,0-1,0-1.6c0.8-0.3,1.6-0.5,2.4-0.8
	c2.6-1.6,4.7-2.7,5.5-6.3c1.1-0.3,2.1-0.5,3.1-0.8c0.2-3.8,0.8-2.7,1.6-5.5c-1.3,0-2.6,0-3.9,0c0-0.3,0-0.5,0-0.8
	c-11,0.3-22,0.5-32.9,0.8c-5.2,0-10.5,0-15.7,0c-2.6-0.8-5.2-1.6-7.8-2.3c0-1,0-2.1,0-3.1c2.1-1.1,3.3-1.6,7.1-1.6
	c2.1,1.8,9.8,0.8,13.3,0.8c12.7,0,23.3,1.3,34.5-0.8c0.5-1.3,0.7-1.8,0.8-3.9c-0.9-0.4-1.2-1.4-1.6-1.6c-0.8,0-1.6,0-2.4,0
	c0-0.3,0-0.5,0-0.8c-1.5-1.2-1.5-1.2-1.6-3.9c1.7-0.3,1.4-0.7,1.6-0.8c1.3,0,2.6,0,3.9,0c0-0.3,0-0.5,0-0.8c1.6-0.5,3.1-1,4.7-1.6
	c0.3-2.6,0.5-5.2,0.8-7.8c-0.9-0.5-1.2-1.4-1.6-1.6c-0.5,0-1,0-1.6,0c0-0.3,0-0.5,0-0.8c-3.4,0-6.8,0-10.2,0c0-0.3,0-0.5,0-0.8
	c-1.6-0.3-3.1-0.5-4.7-0.8c-0.6-2.8-2.2-6-3.9-7.9c-0.8-0.5-1.6-1-2.4-1.6c-0.3-1.6-0.5-3.1-0.8-4.7c-0.5-0.3-1.1-0.5-1.6-0.8
	c-0.3-0.8-0.5-1.6-0.8-2.4c-0.3,0-0.5,0-0.8,0c-1.5-2.5-2.1-9-2.4-12.5c1-0.8,1.2-1.6,2.4-2.4c0-0.3,0-0.5,0-0.8
	c1.8-0.3,3.7-0.5,5.5-0.8c0-0.3,0-0.5,0-0.8c1.1-0.3,2.1-0.5,3.1-0.8c0-0.3,0-0.5,0-0.8c4.4-0.3,8.9-0.5,13.3-0.8
	c3.3-1,7.2-1.9,10.2-3.1c2.9-8.3,1.4-14.4,13.3-14.1c1.1,2,1.4,1.3,1.6,4.7c-1.1,0.9-1.7,2.6-2.4,3.9c0.3,0,0.5,0,0.8,0
	c0,0.5,0,1,0,1.6c1,1.5,7,0.9,9.4,0.8c0-0.3,0-0.5,0-0.8c1.3-0.3,2.6-0.5,3.9-0.8c0.5-0.8,1-1.6,1.6-2.4c0.5,0,1,0,1.6,0
	c0-0.3,0-0.5,0-0.8c0.8,0,1.6,0,2.4,0c4.2-1.5,6.4,0,10.2,0.8c2,4.2,5.9,5.6,6.3,11c1.5,1.6,0.8,7.2,0.8,10.2
	c-0.3,2.6-0.5,5.2-0.8,7.8c-0.3,0-0.5,0-0.8,0c0,0.5,0,1,0,1.6c-0.3,0-0.5,0-0.8,0c0,1.3,0,2.6,0,3.9c-0.5,0.3-1,0.5-1.6,0.8
	c-1.9,3.2,0,5.1-4.7,6.3c-3,2.6-8.2,0.3-12.5,1.6c-4.6,1.3-8.8,2.9-14.1,3.9c0,0.3,0,0.5,0,0.8c1.1-0.3,4.5-1.6,6.3-0.8
	c0.3,0.5,0.5,1,0.8,1.6c2.9,1.5,3.6-0.8,4.7,3.1c1.6,1.7,0.7,6.9,0,8.6c1,0,2.1,0,3.1,0c0,0.3,0,0.5,0,0.8c1.6-0.3,3.1-0.5,4.7-0.8
	c0-0.3,0-0.5,0-0.8c0.5,0,1,0,1.6,0c0-0.3,0-0.5,0-0.8c0.5,0,1,0,1.6,0c0-0.3,0-0.5,0-0.8c0.5,0,1,0,1.6,0c0-0.3,0-0.5,0-0.8
	c1.6-0.3,3.1-0.5,4.7-0.8c0-0.3,0-0.5,0-0.8c1-0.3,2.1-0.5,3.1-0.8c0-0.3,0-0.5,0-0.8c0.5,0,1,0,1.6,0c0.3-0.5,0.5-1,0.8-1.6
	c1.3-0.3,2.6-0.5,3.9-0.8c0-0.3,0-0.5,0-0.8c1.6,0,3.1,0,4.7,0c0,0.3,0,0.5,0,0.8c2.9-0.3,5.8-0.5,8.6-0.8c0.3,0.8,0.5,1.6,0.8,2.3
	c0.5,0.6,1.1,0.8,0.8,2.3c-0.3,0-0.5,0-0.8,0c0,1,0,2.1,0,3.1c-1,1.5-7.7,1-10.2,0.8c0-0.3,0-0.5,0-0.8c-1.1-0.6-5,0.5-5.5,0.8
	c0,0.3,0,0.5,0,0.8c-1.3,0.3-2.6,0.5-3.9,0.8c-0.8,1-1.6,2.1-2.4,3.1c-0.5,0-1,0-1.6,0c0,0.3,0,0.5,0,0.8c-3.4,0.5-6.8,1-10.2,1.6
	c-0.5,0.8-1,1.6-1.6,2.3c-1,0.3-2.1,0.5-3.1,0.8c-0.3,0.5-0.5,1-0.8,1.6c-1.6,0-3.1,0-4.7,0c0,0.3,0,0.5,0,0.8
	C283,183.3,281.7,183.6,280.4,183.9z M272.5,164.3c-1,0.7-0.9,0.5-1.6,1.6c-2.2,0-3.4-0.3-4.7-0.8c0.1-2.1,0.3-2.7,0.8-3.9
	c1.6-0.5,0.7,0.1,1.6-0.8c1.3,0.3,2.6,0.5,3.9,0.8C272.5,162.2,272.5,163.2,272.5,164.3z M272.5,172.9c0-0.3,0-0.5,0-0.8
	c4.4,0,4.6,0.9,7.1,2.3c-1.2,4.2-2.1,1.7-5.5,3.1c0,0.3,0,0.5,0,0.8c-2.4,1.1-3.9,1.3-5.5,3.1c-1.6-1.6-1.7-4.5-1.6-7.8
	C268.8,173.4,270.7,173.1,272.5,172.9z"/>
<path class="st0" d="M81.1,127.4c1.6,9-3.2,18.2-5.5,25.9c0,4.7,0,9.4,0,14.1c-0.3,0-0.5,0-0.8,0c0.3,5.5,0.5,11,0.8,16.5
	c-0.3,0-0.5,0-0.8,0c0,3.1,0,6.3,0,9.4c-0.3,0-0.5,0-0.8,0c-1.4,4.9,0.5,12.6,0.8,16.5c0,2.1,0,4.2,0,6.3c-0.3,0-0.5,0-0.8,0
	c-0.3,1.3-0.5,2.6-0.8,3.9c1.3-0.3,1.1,1.4,1.6,2.3c0.3,0,0.5,0,0.8,0c0,2.6,0,5.2,0,7.8c0.7,3.9,0.7,6.2,0,10.2
	c-2.4,1.3-1.4,1.5-5.5,1.6c0-0.3,0-0.5,0-0.8c-1.1,0-2.1,0-3.1,0c-0.5-0.8-1.1-1.6-1.6-2.3c-0.5,0-1.1,0-1.6,0
	c-0.8-2.8-3.3-2.3-6.3-2.3c-0.8-3.8-1.5-3.5-0.8-7.8c1.3-0.5,1.8-0.7,3.9-0.8c0,0.3,0,0.5,0,0.8c1.4,0.8,3.3-0.5,3.9-0.8
	c0-0.3,0-0.5,0-0.8c0.5,0,1,0,1.6,0c0.3-1.8,0.5-3.7,0.8-5.5c0.3,0,0.5,0,0.8,0c0-0.2-1.3-2.9-0.8-4.7c0.3,0,0.5,0,0.8,0
	c0-2.1,0-4.2,0-6.3c0.3,0,0.5,0,0.8,0c-0.5-4.5-1.1-8.9-1.6-13.3c0.3,0,0.5,0,0.8,0c0-6.3,0-12.5,0-18.8c0.3,0,0.5,0,0.8,0
	c0-4.7,0-9.4,0-14.1c0.3,0,0.5,0,0.8,0c0-4.5,0-8.9,0-13.3c0.3,0,0.5,0,0.8,0c0-1.6,0-3.1,0-4.7c0.3,0,0.5,0,0.8,0
	c0.2-1.3-0.7-1.4-0.8-1.6c-0.3-5.2-0.5-10.5-0.8-15.7c0.8-0.5,1.3-1.4,1.6-1.6c0.5,0,1,0,1.6,0c0-0.3,0-0.5,0-0.8c1.3,0,2.6,0,3.9,0
	c0.2,0,0.2-1.1,1.6-0.8c0,0.3,0,0.5,0,0.8C79,126.9,80,127.1,81.1,127.4z M133.7,209.8c-1.1,0.3-2.1,0.5-3.1,0.8c0,0.3,0,0.5,0,0.8
	c-1.8,0-3.7,0-5.5,0c0,0.3,0,0.5,0,0.8c-3.2,0.9-6-1-7.8-1.6c-2.3,0-4.7,0-7.1,0c0-0.3,0-0.5,0-0.8c-0.5,0-1.1,0-1.6,0
	c0-0.5,0-1,0-1.6c-0.8-0.8-2.6-1.1-2.3-2.3c-3.5-2.5-4-0.7-3.9-7.1c-1.2-1.3-0.8-4.6-0.8-7.1c0-6.8-0.3-14.8,0.8-20.4
	c0.8-0.4,1.3-1.4,1.6-1.6c0.5,0,1.1,0,1.6,0c-0.9-2.8,11.3,1.4,11.8,1.6c0,0.3,0,0.5,0,0.8c1.1,0,2.1,0,3.1,0c0,0.3,0,0.5,0,0.8
	c0.8,0,1.6,0,2.3,0c0,0.3,0,0.5,0,0.8c0.5,0,1.1,0,1.6,0c0,0.3,0,0.5,0,0.8c0.5,0,1.1,0,1.6,0c0.8,1,1.6,2.1,2.3,3.1
	c2.6,1.7,3.5-0.2,5.5,3.1c0.3,0,0.5,0,0.8,0c0,1,0,2.1,0,3.1c0.5,0.3,1.1,0.5,1.6,0.8c0,0.5,0,1,0,1.6c0.3,0,0.5,0,0.8,0
	c0,0.5,0,1,0,1.6c0.3,0,0.5,0,0.8,0c0.5,5,1.1,9.9,1.6,14.9c-0.3,0-0.5,0-0.8,0c0,0.5,0,1,0,1.6c-0.3,0-0.5,0-0.8,0
	C136.1,206.1,134.4,207.1,133.7,209.8z M35.6,176c0.6,2.3,1.8,3.1,3.1,4.7c0.3,0,0.5,0,0.8,0c0,0.5,0,1,0,1.6c0.3,0,0.5,0,0.8,0
	c0,0.5,0,1,0,1.6c0.3,0,0.5,0,0.8,0c0,0.8,0,1.6,0,2.3c0.3,0,0.5,0,0.8,0c0,1,0,2.1,0,3.1c2.5,7.8-1.2,13.3-2.4,19.6
	c-0.8,0.5-1.2,1.4-1.6,1.6c-0.5,0-1,0-1.6,0c0,0.3,0,0.5,0,0.8c-1.8,0.7-15.2,2.5-18,1.6c-2.4-0.8-5-2.5-7.8-3.1c0-0.5,0-1,0-1.6
	c-2.1-1.3-4.2-2.6-6.3-3.9c0-0.5,0-1,0-1.6c-0.5-0.3-1-0.5-1.6-0.8c0-0.5,0-1,0-1.6c-0.5-0.3-1.1-0.5-1.6-0.8c0-0.5,0-1,0-1.6
	c-0.3,0-0.5,0-0.8,0c-1.1-3,1.1-5,1.6-7.1c0.8-0.3,1.6-0.5,2.3-0.8c0.9-3.2,2.4-3,4.7-4.7c2.1-2.3,4.2-4.7,6.3-7.1
	c0.8-0.3,1.6-0.5,2.3-0.8c0.5-0.8,1.1-1.6,1.6-2.3c1.9-1.2,3.7-0.4,5.5-2.3c2.9,0.5,5.8,1,8.6,1.6C32.9,175.7,34.6,175.5,35.6,176z"
	/>
<path class="st0" d="M690.6,172.1c-5,0.3-9.9,0.5-14.9,0.8c0,0.3,0,0.5,0,0.8c-0.5,0-1,0-1.6,0c0,0.3,0,0.5,0,0.8
	c-1.3,0-2.6,0-3.9,0c0,0.3,0,0.5,0,0.8c-1.2,0.7-1.9,0.6-3.9,0.8c-0.5-1.2-0.6-1.3-0.8-3.1c0.7-0.3,1.6-1.6,1.6-1.6
	c2.1-0.3,4.2-0.5,6.3-0.8c0-0.3,0-0.5,0-0.8c0.5,0,1,0,1.6,0c0-0.3,0-0.5,0-0.8c0.8,0,1.6,0,2.3,0c0-0.3,0-0.5,0-0.8
	c1.8,0,3.7,0,5.5,0c2.4-0.7,6.3-1.4,8.6-2.3c1-2.4,2.8-5.1,2.3-7.8c0.3,0,0.5,0,0.8,0c0-0.8,0-1.6,0-2.3c0.3,0,0.5,0,0.8,0
	c0-0.8,0-1.6,0-2.4c0.3,0,0.5,0,0.8,0c1.5-4.8-1-12.3-1.6-15.7c-4.9,0.1-7.5-0.9-11-1.6c-1.4-3.1-3-4.1-3.1-8.6c-0.3,0-0.5,0-0.8,0
	c0-0.5,0-1,0-1.6c0.3,0,0.5,0,0.8,0c-0.3-2.6-0.5-5.2-0.8-7.9c0.5-0.3,1-0.5,1.6-0.8c0.3-1.3,0.5-2.6,0.8-3.9
	c3.8-1.7,6.5-4.5,11-5.5c0-0.5,0-1,0-1.6c2.9-0.8,5.8-1.6,8.6-2.4c0.3-0.5,0.5-1,0.8-1.6c0.5,0,1,0,1.6,0c0-0.3,0-0.5,0-0.8
	c0.8,0,1.6,0,2.3,0c0-0.3,0-0.5,0-0.8c0.5,0,1,0,1.6,0c0-0.3,0-0.5,0-0.8c2.9-0.3,5.8-0.5,8.6-0.8c1,1.3,2.8,2,3.9,3.1
	c1.3,1.6,2.6,3.1,3.9,4.7c-0.3,3.4-0.5,6.8-0.8,10.2c-1.6,1.3-3.1,2.6-4.7,3.9c0,0.5,0,1,0,1.6c-0.8,0.5-1.6,1-2.3,1.6
	c-0.3,0.5-0.5,1-0.8,1.6c-0.5,0-1,0-1.6,0c-1.3,1.6-2.6,3.1-3.9,4.7c-1,0.3-2.1,0.5-3.1,0.8c-0.3,0.5-0.5,1-0.8,1.6
	c-0.5,0-1,0-1.6,0c-0.8,1-1.6,2.1-2.3,3.1c-0.5,0-1,0-1.6,0c-0.7,0.8-1.1,2.6-2.3,2.4c0,1.6,0,3.1,0,4.7c1.1,1.1,2.7,7.9,1.6,11
	c-0.3,0-0.5,0-0.8,0c0,0.5,0,1,0,1.6c-0.3,0-0.5,0-0.8,0c0,0.8,0,1.6,0,2.3c-0.3,0-0.5,0-0.8,0c0,1.8,0,3.7,0,5.5
	c0,0.1-1.3,0.3-0.8,1.6c0.3,0,0.5,0,0.8,0c0,0.3,0,0.5,0,0.8c1,0,2.1,0,3.1,0c2.4-2.7,6.3-1.9,10.2-3.1c0-0.3,0-0.5,0-0.8
	c2.1,0,4.2,0,6.3,0c0-0.3,0-0.5,0-0.8c1.8-0.3,3.7-0.5,5.5-0.8c0.8-1,1.6-2.1,2.3-3.1c0.9-0.6,5.8-2.4,7.8-1.6
	c0.3,0.5,0.5,1,0.8,1.6c1.5,0.5,4-2,6.3-0.8c0,0.3,0,0.5,0,0.8c0.3,0,0.5,0,0.8,0c0,1.3,0,2.6,0,3.9c-0.8,0.8-2.6,1.1-2.3,2.3
	c-0.5,0-1,0-1.6,0c0,0.3,0,0.5,0,0.8c-3.9,0.5-7.8,1-11.8,1.6c0,0.3,0,0.5,0,0.8c-0.8,0-1.6,0-2.3,0c0,0.3,0,0.5,0,0.8
	c-2.3,0-4.7,0-7.1,0c-5.3,1.5-11.2,3-18,3.1c-2.3,4.5-1.6,13.5-1.6,20.4c-0.3,0-0.5,0-0.8,0c0,0.8,0,1.6,0,2.3c-0.3,0-0.5,0-0.8,0
	c0,0.3,0,0.5,0,0.8c-0.8,0-1.6,0-2.3,0c-1.8-3.3-1.6-4.9-1.6-10.2c0.3,0,0.5,0,0.8,0c0.9-1.6-0.7-3.2-0.8-3.9
	c-0.1-1.7,0.8-1.6,0.8-1.6C692.1,175.8,691,173.8,690.6,172.1z M624,161.1c-2.8-0.7-3.5-2.4-6.3-3.1c-0.5-2.2-1-1.8-1.6-3.9
	c-2-0.5-2.2-0.8-3.1-2.4c-1.6-1.5-2.3-5.4-2.3-8.6c0.9-0.9,0.3,0,0.8-1.6c-0.5,0-1,0-1.6,0c-0.8-4.5-2.2-7.4-2.3-12.5
	c1-0.5,2.7-0.3,2.3-1.6c0.8,0,1.6,0,2.3,0c0-0.3,0-0.5,0-0.8c2.2-0.7,15.3,2.4,17.3,3.1c0,0.3,0,0.5,0,0.8c1.3,0,2.6,0,3.9,0
	c0,0.3,0,0.5,0,0.8c1.3,0,2.6,0,3.9,0c0,0.3,0,0.5,0,0.8c0.8,0,1.6,0,2.3,0c0,0.3,0,0.5,0,0.8c1,0,2.1,0,3.1,0c0,0.3,0,0.5,0,0.8
	c1,0.3,2.1,0.5,3.1,0.8c0.3,0.5,0.5,1,0.8,1.6c0.5,0,1,0,1.6,0c0.3,0.5,0.5,1,0.8,1.6c1.3,0.3,2.6,0.5,3.9,0.8
	c-0.3,1.2,1.6,1.6,2.3,2.4c0,0.5,0,1,0,1.6c0.3,0,0.5,0,0.8,0c0,0.5,0,1,0,1.6c1.3,1,2.6,2.1,3.9,3.1c0.3,1.6,0.5,3.1,0.8,4.7
	c1.5,4.1,3.1,8.6,3.1,14.1c-1.8,1.6-3.7,3.1-5.5,4.7c-8.1,0.4-15.3,1.5-21.2-0.8c-0.8,0-1.6,0-2.3,0c0-0.3,0-0.5,0-0.8
	c-0.5,0-1,0-1.6,0c0-0.3,0-0.5,0-0.8c-0.5,0-1,0-1.6,0c-0.3-0.5-0.5-1-0.8-1.6c-0.5,0-1,0-1.6,0c-0.3-0.5-0.5-1-0.8-1.6
	C626,163.3,625,165,624,161.1z M656.9,188.6c-0.5,0-1,0-1.6,0c-0.8,1-1.6,2.1-2.3,3.1c-0.8,0.3-1.6,0.5-2.3,0.8c0,0.5,0,1,0,1.6
	c-1.8,1.6-3.7,3.1-5.5,4.7c-1.3,0.3-2.6,0.5-3.9,0.8c0,0.3,0,0.5,0,0.8c-0.5,0-1,0-1.6,0c0,0.3,0,0.5,0,0.8c-0.8,0-1.6,0-2.3,0
	c0,0.3,0,0.5,0,0.8c-2.6,0-5.2,0-7.8,0c-1.2-2.1-2.2-1.9-2.3-5.5c3.2-1.5,5.5-4,7.8-6.3c0.3-0.5,0.5-1,0.8-1.6c0.5,0,1,0,1.6,0
	c0.3-0.5,0.5-1,0.8-1.6c1.3-0.3,2.6-0.5,3.9-0.8c3.7-1.6,6.4-3.7,11.8-3.9c2.2,2.4,3.3,0.2,3.9,4.7
	C656.8,187.9,657.4,187,656.9,188.6z M741.6,227.8c-2.8,0.6-4.3,2-6.3,3.1c-0.5,0-1,0-1.6,0c-0.3,0.5-0.5,1-0.8,1.6
	c-0.5,0-1,0-1.6,0c0,0.3,0,0.5,0,0.8c-1.8,0-3.7,0-5.5,0c0,0.3,0,0.5,0,0.8c-4.7-0.3-9.4-0.5-14.1-0.8c0-0.3,0-0.5,0-0.8
	c-2.6,0-5.2,0-7.8,0c0-0.3,0-0.5,0-0.8c-0.5,0-1,0-1.6,0c0-0.3,0-0.5,0-0.8c-1.8-0.3-3.7-0.5-5.5-0.8c0-0.3,0-0.5,0-0.8
	c-0.8,0-1.6,0-2.3,0c0-0.3,0-0.5,0-0.8c-4.7,0-9.4,0-14.1,0c0,0.3,0,0.5,0,0.8c-5.5-0.5-11-1-16.5-1.6c-0.5-2.4-1-3.1,0-5.5
	c0.3,0,0.5,0,0.8,0c0.8-2.3-0.1-5.5,0.8-7.8c-0.2-1-1.7-4.2-0.8-6.3c0.5-0.3,1-0.5,1.6-0.8c0-0.5,0-1,0-1.6c0.5-0.3,1-0.5,1.6-0.8
	c0-0.5,0-1,0-1.6c0.5-0.3,1-0.5,1.6-0.8c1.2-2.6-0.8-5,1.6-6.3c2.1,0,4.2,0,6.3,0c0.9,0.9,0,0.3,1.6,0.8c0.3,1,0.4-0.3,0.8,0.8
	c0,2.6,0,5.2,0,7.8c0.3,0,0.5,0,0.8,0c1.4,1.3,5.9,0.9,8.6,0.8c1.3-1.9,0.6-0.5,2.3-1.6c0-0.3,0-0.5,0-0.8c0.5,0,1,0,1.6,0
	c0.3-0.5,0.5-1,0.8-1.6c0.5,0,1,0,1.6,0c0-0.3,0-0.5,0-0.8c0.5,0,1,0,1.6,0c0-0.3,0-0.5,0-0.8c0.5,0,1,0,1.6,0c0-0.3,0-0.5,0-0.8
	c0.8,0,1.6,0,2.3,0c0-0.3,0-0.5,0-0.8c0.5,0,1,0,1.6,0c0-0.3,0-0.5,0-0.8c1.3-0.3,2.6-0.5,3.9-0.8c1.8-1.2,3-4.8,3.9-7.1
	c6.5-0.1,9.3-1.8,14.1-3.1c3.8-1.1,13,2.5,16.5,3.1c1.6,2.1,3.1,4.2,4.7,6.3c-0.3,6.5-0.5,13.1-0.8,19.6c-0.3,0-0.5,0-0.8,0
	C743.2,220.5,742.4,224.1,741.6,227.8z M699.3,227c-0.8,0-1.6,0-2.3,0c0-0.3,0-0.5,0-0.8c-1,0-2.1,0-3.1,0c0-0.3,0-0.5,0-0.8
	c-4.6-1.4-12.5,1.3-15.7-1.6c-2.8,0-3.6,0.1-4.7-1.6c-1.1-1.4,0.6-7.3,2.3-8.6c1.4-1.4,6.1-2.4,9.4-1.6c0,0.3,0,0.5,0,0.8
	c1.3,0,2.6,0,3.9,0c0-0.3,0-0.5,0-0.8c0.5,0,1,0,1.6,0c0.3-0.5,0.5-1,0.8-1.6c1.3-0.3,2.6-0.5,3.9-0.8c0.5-0.8,1-1.6,1.6-2.3
	c3.4-1,6.8-2.1,10.2-3.1c0.5,1,0.3,2.7,1.6,2.3c0,0.5,0,1,0,1.6c0.3,0,0.5,0,0.8,0c0.5,6.8,1,13.6,1.6,20.4
	C705.2,229.6,704.1,228.8,699.3,227z M653,215.3c-5.4,0.8-9.1,0.9-10.2,6.3c-0.5,0-1,0-1.6,0c-1,1.6-2.6,1.9-3.9,3.1
	c-0.8,0.8-1.1,2.6-2.3,2.3c0,0.5,0,1,0,1.6c-1,0.8-2.1,1.6-3.1,2.3c0,0.5,0,1,0,1.6c-0.8,0.5-1.6,1-2.3,1.6c0,0.5,0,1,0,1.6
	c-1.2-0.3-1.1,1.4-1.6,2.3c-0.5,0.3-1,0.5-1.6,0.8c0,0.5,0,1,0,1.6c-0.8,0.5-1.6,1-2.3,1.6c-0.5,1.6-1,3.1-1.6,4.7
	c-0.5,0.3-1,0.5-1.6,0.8c0,0.5,0,1,0,1.6c-0.8,0.3-1.6,0.5-2.3,0.8c0.3,1.2-1.6,1.6-2.3,2.3c-0.3,1-0.5,2.1-0.8,3.1
	c-1.3,0.8-2.6,1.6-3.9,2.3c-0.3,0.8-0.5,1.6-0.8,2.3c-0.5,0.3-1,0.5-1.6,0.8c-0.5,0.8-1,1.6-1.6,2.3c-2.3,0.8-4.7,1.6-7.1,2.3
	c0,0.3,0,0.5,0,0.8c-0.3,0-0.5,0-0.8,0c0-0.3,0-0.5,0-0.8c-1,0-2.1,0-3.1,0c0-5.1,0.7-6.3,2.3-9.4c0-0.5,0-1,0-1.6
	c0.8-0.8,2.6-1.1,2.3-2.3c0.8-0.3,1.6-0.5,2.3-0.8c0-0.5,0-1,0-1.6c1-0.8,2.1-1.6,3.1-2.3c0-0.3,0-0.5,0-0.8
	c1.3-0.3,2.6-0.5,3.9-0.8c0.3-0.8,0.5-1.6,0.8-2.3c1-0.5,2.1-1,3.1-1.6c1.6-2.1,3.1-4.2,4.7-6.3c2.7-2.5,6-4.6,7.8-7.8
	c0.5,0,1,0,1.6,0c0.8-1,1.6-2.1,2.3-3.1c0.5,0,1,0,1.6,0c2.1-2.3,4.2-4.7,6.3-7.1c0.5,0,1,0,1.6,0c0.5-0.8,1-1.6,1.6-2.3
	c0.5,0,1,0,1.6,0c0.3-0.5,0.5-1,0.8-1.6c1-0.3,2.1-0.5,3.1-0.8c0.3-0.5,0.5-1,0.8-1.6c0.5,0,1,0,1.6,0c2.3-1.6,0.4-2.6,4.7-3.1
	c0.5,1.3,0.7,1.8,0.8,3.9C653.8,213,653.5,213.2,653,215.3z"/>
</svg>
